<svg version="1.1" id="Layer_1" xmlns="http://www.w3.org/2000/svg" xmlns:xlink="http://www.w3.org/1999/xlink" x="0px" y="0px"
	 width="100%" viewBox="0 0 64 64" enable-background="new 0 0 64 64" xml:space="preserve">
<path fill="#C1E8FE" opacity="1.000000" stroke="none" 
	d="
M5.000000,1.000000 
	C21.354227,1.000000 37.708454,1.000000 54.547039,1.417027 
	C55.029877,6.558306 55.028358,11.282557 54.975277,16.364450 
	C53.124840,18.779381 51.325962,20.836670 49.584728,22.498024 
	C49.715836,21.058794 49.789299,20.015499 49.906826,18.737278 
	C49.950893,18.502348 49.849827,18.035105 49.918236,17.706184 
	C50.033653,16.932077 50.080658,16.486891 50.431671,15.841320 
	C50.276402,14.166656 49.817120,12.692377 49.357841,11.218098 
	C47.857861,11.725334 46.027447,11.860633 44.937275,12.829151 
	C43.397984,14.196665 42.406116,16.180363 40.803776,17.792435 
	C38.616142,17.483568 36.804955,17.282907 34.553307,17.055439 
	C32.052856,17.074415 29.992870,17.120199 27.719257,17.229897 
	C27.251602,17.470196 27.069199,17.702803 26.627003,17.967068 
	C26.075901,17.913862 25.856213,17.885221 25.480568,17.586487 
	C24.160002,16.215351 22.995386,15.114310 21.811386,13.689184 
	C20.183867,12.969042 18.575729,12.572983 16.759876,12.107015 
	C16.552156,12.037107 16.113886,12.044610 15.708374,12.033155 
	C8.022882,13.945635 5.321435,8.366238 2.071446,3.580291 
	C3.125324,2.522534 4.062662,1.761267 5.000000,1.000000 
z"/>
<path fill="#BEE6FE" opacity="1.000000" stroke="none" 
	d="
M1.954907,3.876780 
	C5.321435,8.366238 8.022882,13.945635 15.594402,12.453606 
	C15.974222,14.587530 16.062502,16.289551 16.123581,18.353821 
	C16.731710,20.237085 17.367039,21.758101 18.007484,23.563528 
	C17.998747,24.226894 17.984892,24.605848 17.982006,24.995155 
	C17.992973,25.005508 17.991497,24.976379 17.781590,25.088341 
	C17.302387,25.395273 17.131935,25.655083 17.013626,26.301521 
	C16.669104,27.432739 16.371277,28.242165 16.047995,29.410892 
	C15.698470,30.867889 15.374399,31.965582 14.726599,32.908981 
	C12.601497,32.170372 10.800124,31.586058 8.844520,30.706009 
	C6.126857,27.606848 3.563429,24.803423 1.000000,22.000000 
	C1.000000,16.311958 1.000000,10.623919 1.242694,4.467876 
	C1.485387,3.999874 1.954907,3.876780 1.954907,3.876780 
z"/>
<path fill="#E6CEFB" opacity="1.000000" stroke="none" 
	d="
M49.527084,22.893959 
	C51.325962,20.836670 53.124840,18.779381 55.352089,16.352127 
	C58.853642,15.654774 61.926823,15.327387 65.000000,15.000000 
	C65.000000,18.692909 65.000000,22.385818 64.638756,26.586475 
	C62.562313,28.221329 60.747211,29.224417 59.156429,30.505960 
	C57.019978,32.227100 55.056820,34.163349 52.961670,35.632851 
	C52.269127,33.171104 51.634182,31.083763 50.994274,28.642378 
	C50.314419,26.597454 49.639526,24.906572 49.080719,23.092176 
	C49.196804,22.968662 49.527084,22.893959 49.527084,22.893959 
z"/>
<path fill="#E0D2FD" opacity="1.000000" stroke="none" 
	d="
M65.000000,14.550020 
	C61.926823,15.327387 58.853642,15.654774 55.403648,15.994485 
	C55.028358,11.282557 55.029877,6.558306 55.015697,1.417027 
	C56.714359,1.000000 58.428715,1.000000 60.682072,1.332469 
	C62.480713,3.109958 63.740356,4.554979 65.000000,6.000000 
	C65.000000,8.700014 65.000000,11.400027 65.000000,14.550020 
z"/>
<path fill="#D0DDFE" opacity="1.000000" stroke="none" 
	d="
M43.000000,65.000000 
	C38.974815,65.000000 34.949635,65.000000 30.242485,64.753014 
	C28.706835,64.335556 27.853149,64.165085 26.997477,63.742004 
	C26.991705,63.321030 26.987925,63.152664 27.131989,62.679665 
	C28.164997,60.618675 29.050158,58.862320 30.383141,57.070488 
	C33.209114,57.003334 35.587265,56.971657 38.371876,56.958229 
	C39.862041,57.007568 40.945747,57.038658 42.021660,57.434624 
	C42.019436,58.529339 42.025005,59.259182 42.049271,60.284683 
	C42.377762,61.057652 42.687557,61.534958 42.998299,62.385735 
	C42.999496,63.506134 42.999752,64.253067 43.000000,65.000000 
z"/>
<path fill="#CED0FE" opacity="1.000000" stroke="none" 
	d="
M1.000000,22.466862 
	C3.563429,24.803423 6.126857,27.606848 8.683634,31.052670 
	C8.117747,35.796867 7.558514,39.898663 6.705373,43.838852 
	C4.607644,41.784832 2.803821,39.892418 1.000000,38.000000 
	C1.000000,32.977909 1.000000,27.955816 1.000000,22.466862 
z"/>
<path fill="#C3DEFE" opacity="1.000000" stroke="none" 
	d="
M1.000000,56.000000 
	C1.000000,56.000000 1.000000,55.500000 1.271531,55.038948 
	C3.367198,52.711414 5.191335,50.844933 7.379916,48.974743 
	C9.527294,48.270679 11.310228,47.570324 13.326088,46.909973 
	C13.866471,47.000603 14.173486,47.053780 14.693619,47.348267 
	C15.587204,48.097599 16.267229,48.608189 17.107304,49.397911 
	C17.861866,50.781517 18.456377,51.885986 18.918266,53.207253 
	C18.516329,53.624630 18.247011,53.825207 17.563541,54.023094 
	C15.768921,54.024433 14.388452,54.028469 12.671827,54.166428 
	C10.230099,54.876812 8.124526,55.453274 5.600779,56.020325 
	C3.788402,56.007275 2.394201,56.003639 1.000000,56.000000 
z"/>
<path fill="#DECEFC" opacity="1.000000" stroke="none" 
	d="
M53.019272,36.007256 
	C55.056820,34.163349 57.019978,32.227100 59.156429,30.505960 
	C60.747211,29.224417 62.562313,28.221329 64.638756,27.047112 
	C65.000000,28.066669 65.000000,29.133339 64.701797,30.756222 
	C61.288067,35.214088 58.172539,39.115742 54.996731,42.691078 
	C54.274933,41.955124 53.613411,41.545490 52.710968,41.064255 
	C52.309986,40.943100 52.149921,40.893547 51.995972,40.538445 
	C52.012699,39.825684 52.023308,39.418480 52.276207,38.788002 
	C52.685425,37.712238 52.852348,36.859749 53.019272,36.007256 
z"/>
<path fill="#C9CFFE" opacity="1.000000" stroke="none" 
	d="
M55.057011,43.017395 
	C58.172539,39.115742 61.288067,35.214088 64.701797,31.156218 
	C65.000000,33.041668 65.000000,35.083332 64.626160,37.574955 
	C62.501190,41.015079 60.750065,44.005249 58.633266,47.047318 
	C56.493546,47.029839 54.719498,46.960461 52.995842,46.650322 
	C53.046242,46.409561 53.261894,45.966896 53.448685,45.748417 
	C53.810986,44.981228 53.986500,44.432518 54.346382,43.780075 
	C54.746403,43.488819 54.921822,43.269173 55.057011,43.017395 
z"/>
<path fill="#CDD9FE" opacity="1.000000" stroke="none" 
	d="
M65.000000,54.000000 
	C65.000000,56.042316 65.000000,58.084637 64.609940,60.562496 
	C62.483498,60.666325 60.747105,60.334614 59.154644,59.666946 
	C60.320763,56.935623 60.550137,54.965824 56.696598,54.995804 
	C55.936089,54.641121 55.468945,54.320858 55.287922,53.733261 
	C57.718113,53.305729 59.862179,53.145538 62.322975,53.021729 
	C63.426472,53.372074 64.213234,53.686035 65.000000,54.000000 
z"/>
<path fill="#C9CDFE" opacity="1.000000" stroke="none" 
	d="
M59.010715,60.002899 
	C60.747105,60.334614 62.483498,60.666325 64.609940,60.999020 
	C65.000000,62.307331 65.000000,63.614666 65.000000,65.000000 
	C58.979736,65.000000 52.959244,65.000000 46.592583,64.786407 
	C46.452957,64.306923 46.710995,64.107727 47.432308,63.978855 
	C49.219654,63.973751 50.595207,63.965008 52.357254,63.959930 
	C55.019119,63.346378 58.033451,63.724499 58.275650,60.031593 
	C58.520767,60.024624 59.010715,60.002899 59.010715,60.002899 
z"/>
<path fill="#C7CEFE" opacity="1.000000" stroke="none" 
	d="
M1.000000,38.449982 
	C2.803821,39.892418 4.607644,41.784832 6.705486,44.239277 
	C6.994882,45.869469 6.990256,46.937626 6.603076,47.995392 
	C4.480349,47.656666 2.740174,47.328331 1.000000,47.000000 
	C1.000000,44.299988 1.000000,41.599972 1.000000,38.449982 
z"/>
<path fill="#BCD1FE" opacity="1.000000" stroke="none" 
	d="
M58.998940,46.995422 
	C60.750065,44.005249 62.501190,41.015079 64.626160,38.012455 
	C65.000000,40.370556 65.000000,42.741116 64.627960,45.556221 
	C62.837910,46.335945 61.419903,46.671116 59.751141,47.003510 
	C59.333241,46.998959 59.166088,46.997189 58.998940,46.995422 
z"/>
<path fill="#B7E1FD" opacity="1.000000" stroke="none" 
	d="
M1.000000,47.444164 
	C2.740174,47.328331 4.480349,47.656666 6.610886,48.238518 
	C7.001249,48.492035 7.015470,48.978447 7.015471,48.978447 
	C5.191335,50.844933 3.367198,52.711414 1.271531,54.788948 
	C1.000000,52.629444 1.000000,50.258884 1.000000,47.444164 
z"/>
<path fill="#B7E3FE" opacity="1.000000" stroke="none" 
	d="
M60.001892,47.006287 
	C61.419903,46.671116 62.837910,46.335945 64.627960,46.000389 
	C65.000000,48.370556 65.000000,50.741116 65.000000,53.555836 
	C64.213234,53.686035 63.426472,53.372074 62.271725,52.669998 
	C61.269794,50.523350 60.635841,48.764820 60.001892,47.006287 
z"/>
<path fill="#D8D2FD" opacity="1.000000" stroke="none" 
	d="
M1.000000,56.428757 
	C2.394201,56.003639 3.788402,56.007275 5.594577,56.416275 
	C6.005105,57.880424 6.003661,58.939209 6.001208,60.331863 
	C5.999887,61.110889 5.999573,61.556046 5.586427,62.001595 
	C4.072918,62.018841 2.972240,62.035698 1.655164,62.014664 
	C1.438766,61.976776 1.000000,62.000000 1.000000,62.000000 
	C1.000000,60.285839 1.000000,58.571674 1.000000,56.428757 
z"/>
<path fill="#CBC9FC" opacity="1.000000" stroke="none" 
	d="
M1.871563,62.052555 
	C2.972240,62.035698 4.072918,62.018841 5.876123,62.152008 
	C7.725830,62.853832 8.873009,63.405640 10.421728,63.963181 
	C11.895716,63.944691 12.968162,63.920464 14.453930,63.912994 
	C16.247179,63.940655 17.627108,63.951565 19.004047,64.221848 
	C19.000708,64.654152 19.000353,64.827080 19.000000,65.000000 
	C13.977907,65.000000 8.955815,65.000000 3.398172,64.680252 
	C2.532269,63.591194 2.201916,62.821873 1.871563,62.052555 
z"/>
<path fill="#DECCFC" opacity="1.000000" stroke="none" 
	d="
M19.436523,65.000000 
	C19.000353,64.827080 19.000708,64.654152 19.299751,63.960827 
	C22.060343,63.288387 24.522243,63.136341 26.984142,62.984299 
	C26.987925,63.152664 26.991705,63.321030 26.787060,63.862022 
	C26.315916,64.436958 26.123039,64.692078 26.000000,65.000000 
	C23.957682,65.000000 21.915365,65.000000 19.436523,65.000000 
z"/>
<path fill="#DBD2FD" opacity="1.000000" stroke="none" 
	d="
M47.020519,63.975220 
	C46.710995,64.107727 46.452957,64.306923 46.123207,64.786407 
	C45.250000,65.000000 44.500000,65.000000 43.375000,65.000000 
	C42.999752,64.253067 42.999496,63.506134 43.333900,62.380722 
	C44.116043,61.993893 44.563522,61.985546 45.342251,61.981419 
	C46.115147,61.991722 46.556797,61.997807 46.999866,62.332611 
	C47.007698,63.099297 47.014107,63.537258 47.020519,63.975220 
z"/>
<path fill="#141A3D" opacity="1.000000" stroke="none" 
	d="
M65.000000,5.500037 
	C63.740356,4.554979 62.480713,3.109958 61.110535,1.332469 
	C62.254913,1.000000 63.509827,1.000000 65.000000,1.000000 
	C65.000000,2.330387 65.000000,3.665231 65.000000,5.500037 
z"/>
<path fill="#12183B" opacity="1.000000" stroke="none" 
	d="
M2.071446,3.580291 
	C1.954907,3.876780 1.485387,3.999874 1.242694,3.999937 
	C0.441172,1.441166 1.441190,0.441181 4.500004,1.000000 
	C4.062662,1.761267 3.125324,2.522534 2.071446,3.580291 
z"/>
<path fill="#C2D3FF" opacity="1.000000" stroke="none" 
	d="
M26.399996,65.000000 
	C26.123039,64.692078 26.315916,64.436958 26.789047,64.114624 
	C27.853149,64.165085 28.706835,64.335556 29.780258,64.753014 
	C28.933331,65.000000 27.866661,65.000000 26.399996,65.000000 
z"/>
<path fill="#12173B" opacity="1.000000" stroke="none" 
	d="
M1.655165,62.014664 
	C2.201916,62.821873 2.532269,63.591194 2.931310,64.680252 
	C2.333332,64.333336 1.666665,63.666668 0.999999,62.500000 
	C1.000000,62.000000 1.438766,61.976776 1.655165,62.014664 
z"/>
<path fill="#FED6F7" opacity="1.000000" stroke="none" 
	d="
M48.964630,23.215691 
	C49.639526,24.906572 50.314419,26.597454 50.625160,28.593655 
	C48.135899,28.169653 46.398880,27.375389 45.834141,30.967411 
	C45.307228,34.318901 43.673904,32.758469 42.611336,30.596590 
	C41.482666,29.772596 40.270309,29.340157 39.057949,28.907717 
	C39.592686,30.120510 40.127422,31.333305 41.005795,32.768013 
	C41.570499,33.149601 41.791569,33.309277 41.876404,33.775448 
	C39.483959,34.367603 37.227745,34.653259 34.956032,34.596874 
	C33.972054,34.500771 33.003567,34.746708 31.678730,34.988716 
	C30.201462,34.289120 29.080551,33.593456 27.986349,32.678417 
	C28.013060,32.459038 28.038015,32.017776 28.296597,31.853683 
	C27.602079,30.503445 26.648981,29.317299 25.769012,27.885273 
	C25.578125,27.473154 25.314106,27.306917 25.037273,26.784039 
	C25.016356,25.951651 25.008253,25.475901 25.000303,24.750196 
	C25.000454,24.500240 25.000811,24.000328 25.356644,23.950832 
	C28.806242,21.628307 31.900005,19.355276 34.993771,17.082247 
	C36.804955,17.282907 38.616142,17.483568 41.053680,17.886303 
	C42.134483,18.320023 42.588928,18.551666 43.390152,18.889168 
	C45.479496,20.401911 47.222065,21.808802 48.964630,23.215691 
z"/>
<path fill="#FED1F5" opacity="1.000000" stroke="none" 
	d="
M34.553307,17.055439 
	C31.900005,19.355276 28.806242,21.628307 25.111378,23.733143 
	C24.026882,22.105646 23.543486,20.646343 23.051628,19.104702 
	C23.043169,19.022364 22.973120,18.872372 23.270451,18.915051 
	C24.029091,18.636536 24.490398,18.315340 25.122906,17.959730 
	C25.294104,17.925316 25.636522,17.856579 25.636522,17.856579 
	C25.856213,17.885221 26.075901,17.913862 26.826721,17.875257 
	C27.610292,17.648396 27.801970,17.434385 27.932884,17.165981 
	C29.992870,17.120199 32.052856,17.074415 34.553307,17.055439 
z"/>
<path fill="#5B537E" opacity="1.000000" stroke="none" 
	d="
M43.043377,18.783312 
	C42.588928,18.551666 42.134483,18.320023 41.430130,17.994511 
	C42.406116,16.180363 43.397984,14.196665 44.937275,12.829151 
	C46.027447,11.860633 47.857861,11.725334 49.357841,11.218098 
	C49.817120,12.692377 50.276402,14.166656 50.037933,15.829557 
	C47.241249,16.939888 45.142315,17.861599 43.043377,18.783312 
z"/>
<path fill="#544A79" opacity="1.000000" stroke="none" 
	d="
M43.390152,18.889168 
	C45.142315,17.861599 47.241249,16.939888 49.733925,16.029940 
	C50.080658,16.486891 50.033653,16.932077 49.788979,17.799789 
	C49.417995,18.543442 49.508480,18.793406 49.862762,18.972206 
	C49.789299,20.015499 49.715836,21.058794 49.584728,22.498024 
	C49.527084,22.893959 49.196804,22.968662 49.080719,23.092176 
	C47.222065,21.808802 45.479496,20.401911 43.390152,18.889168 
z"/>
<path fill="#564C7B" opacity="1.000000" stroke="none" 
	d="
M25.480568,17.586487 
	C25.636522,17.856579 25.294104,17.925316 24.842251,17.987675 
	C23.917971,18.324144 23.445545,18.598257 22.973120,18.872372 
	C22.973120,18.872372 23.043169,19.022364 22.807106,19.050190 
	C22.405210,19.097900 22.239378,19.117783 21.814640,18.857048 
	C20.037632,18.384083 18.519527,18.191736 17.002628,17.599106 
	C17.005074,16.131163 17.006313,15.063502 17.409744,13.997015 
	C19.151548,14.003214 20.491161,14.008242 21.830772,14.013269 
	C22.995386,15.114310 24.160002,16.215351 25.480568,17.586487 
z"/>
<path fill="#5F5480" opacity="1.000000" stroke="none" 
	d="
M21.811386,13.689185 
	C20.491161,14.008242 19.151548,14.003214 17.402256,13.693931 
	C16.984249,12.985424 16.975922,12.581173 16.967594,12.176923 
	C18.575729,12.572983 20.183867,12.969042 21.811386,13.689185 
z"/>
<path fill="#463D6B" opacity="1.000000" stroke="none" 
	d="
M16.759874,12.107015 
	C16.975922,12.581173 16.984249,12.985424 17.000065,13.692759 
	C17.006313,15.063502 17.005074,16.131163 16.789959,17.597073 
	C16.576086,17.995323 16.150780,17.991573 16.150780,17.991573 
	C16.062502,16.289551 15.974222,14.587530 15.999914,12.465059 
	C16.113886,12.044610 16.552156,12.037107 16.759874,12.107015 
z"/>
<path fill="#483F6E" opacity="1.000000" stroke="none" 
	d="
M49.906830,18.737278 
	C49.508480,18.793406 49.417995,18.543442 49.720566,18.128710 
	C49.849827,18.035105 49.950893,18.502348 49.906830,18.737278 
z"/>
<path fill="#FED6F7" opacity="1.000000" stroke="none" 
	d="
M27.719257,17.229897 
	C27.801970,17.434385 27.610292,17.648396 27.158136,17.899822 
	C27.069199,17.702803 27.251602,17.470196 27.719257,17.229897 
z"/>
<path fill="#FDD0F3" opacity="1.000000" stroke="none" 
	d="
M22.073545,19.137667 
	C22.239378,19.117783 22.405210,19.097900 22.815563,19.132528 
	C23.543486,20.646343 24.026882,22.105646 24.755545,23.782639 
	C25.000811,24.000328 25.000454,24.500240 24.655840,24.818535 
	C22.603836,27.223080 19.504154,28.945284 22.652153,32.439774 
	C23.511288,32.570709 24.169958,32.510532 24.740616,32.668739 
	C25.059011,32.903690 25.465418,32.920254 26.220524,32.961319 
	C27.032696,32.956478 27.496166,32.927135 27.959639,32.897797 
	C29.080551,33.593456 30.201462,34.289120 31.926685,35.090637 
	C33.344505,35.110634 34.158020,35.024776 34.971531,34.938919 
	C37.227745,34.653259 39.483959,34.367603 41.933937,33.404270 
	C42.121998,32.477104 42.116302,32.227608 42.227444,31.735916 
	C42.405399,31.325195 42.466526,31.156670 42.527649,30.988144 
	C43.673904,32.758469 45.307228,34.318901 45.834141,30.967411 
	C46.398880,27.375389 48.135899,28.169653 50.630119,28.947697 
	C51.634182,31.083763 52.269127,33.171104 52.961670,35.632851 
	C52.852348,36.859749 52.685425,37.712238 51.841522,38.785156 
	C49.538845,39.245266 47.916519,39.511158 46.286926,39.720531 
	C31.727379,41.591171 24.730644,42.661991 16.073448,29.051590 
	C16.371277,28.242165 16.669104,27.432739 17.212849,26.180176 
	C17.705629,25.532030 17.883205,25.278477 17.991497,24.976379 
	C17.991497,24.976379 17.992973,25.005508 18.327404,24.930290 
	C19.086113,23.871952 19.510393,22.888836 19.956459,21.946373 
	C19.978241,21.987028 19.899626,21.938766 20.229370,21.901878 
	C21.027533,21.209833 21.495949,20.554674 21.991398,19.709015 
	C22.018431,19.518515 22.073545,19.137667 22.073545,19.137667 
z"/>
<path fill="#FCC2F1" opacity="1.000000" stroke="none" 
	d="
M16.047995,29.410892 
	C24.730644,42.661991 31.727379,41.591171 46.286926,39.720531 
	C47.916519,39.511158 49.538845,39.245266 51.599232,39.008427 
	C52.023308,39.418480 52.012699,39.825684 51.743980,40.728554 
	C51.278595,41.810452 51.071316,42.396687 50.476074,43.002304 
	C46.858368,43.641235 43.651825,44.580856 40.394279,44.817081 
	C32.362114,45.399532 24.689226,44.224167 17.960085,39.248020 
	C17.288589,38.751453 16.021139,39.060783 15.019971,38.571068 
	C15.023220,36.451790 15.036775,34.757534 15.050328,33.063274 
	C15.374399,31.965582 15.698470,30.867889 16.047995,29.410892 
z"/>
<path fill="#D2CFFD" opacity="1.000000" stroke="none" 
	d="
M14.726599,32.908981 
	C15.036775,34.757534 15.023220,36.451790 15.118752,38.836182 
	C15.470558,40.035980 15.713278,40.545647 15.695753,41.144920 
	C15.173423,41.494057 14.911336,41.753586 14.353321,42.084736 
	C13.738355,43.449326 13.419315,44.742290 13.093506,46.243889 
	C13.086737,46.452526 13.093162,46.869965 13.093162,46.869965 
	C11.310228,47.570324 9.527294,48.270679 7.379915,48.974743 
	C7.015470,48.978447 7.001249,48.492035 6.993440,48.248909 
	C6.990256,46.937626 6.994882,45.869469 6.999394,44.400883 
	C7.558514,39.898663 8.117747,35.796867 8.837867,31.348408 
	C10.800124,31.586058 12.601497,32.170372 14.726599,32.908981 
z"/>
<path fill="#4C4573" opacity="1.000000" stroke="none" 
	d="
M21.814640,18.857048 
	C22.073545,19.137667 22.018431,19.518515 21.647800,19.759018 
	C20.817987,20.645935 20.358807,21.292351 19.899626,21.938766 
	C19.899626,21.938766 19.978241,21.987028 19.681662,22.070320 
	C18.924177,22.528782 18.463272,22.903950 18.002365,23.279118 
	C17.367039,21.758101 16.731710,20.237085 16.123581,18.353821 
	C16.150780,17.991573 16.576086,17.995323 16.788755,17.997356 
	C18.519527,18.191736 20.037632,18.384083 21.814640,18.857048 
z"/>
<path fill="#FED1F5" opacity="1.000000" stroke="none" 
	d="
M18.007483,23.563526 
	C18.463272,22.903950 18.924177,22.528782 19.659878,22.029667 
	C19.510393,22.888836 19.086113,23.871952 18.316437,24.919937 
	C17.984892,24.605848 17.998747,24.226894 18.007483,23.563526 
z"/>
<path fill="#FED1F5" opacity="1.000000" stroke="none" 
	d="
M17.781590,25.088341 
	C17.883205,25.278477 17.705629,25.532030 17.259542,25.858383 
	C17.131935,25.655083 17.302387,25.395273 17.781590,25.088341 
z"/>
<path fill="#F6D3FC" opacity="1.000000" stroke="none" 
	d="
M27.131989,62.679665 
	C24.522243,63.136341 22.060343,63.288387 19.302740,63.701454 
	C17.627108,63.951565 16.247179,63.940655 14.433764,63.547890 
	C13.669513,60.121525 13.338748,57.077015 13.007983,54.032505 
	C14.388452,54.028469 15.768921,54.024433 17.735909,54.333740 
	C19.609880,55.042267 20.897335,55.437454 22.484756,55.882195 
	C23.188301,55.980812 23.591875,56.029873 24.214012,56.321697 
	C25.284817,56.690887 26.137060,56.817310 27.357294,56.976967 
	C28.461962,57.042118 29.198641,57.074039 29.935318,57.105965 
	C29.050158,58.862320 28.164997,60.618675 27.131989,62.679665 
z"/>
<path fill="#F8D6FC" opacity="1.000000" stroke="none" 
	d="
M46.998447,62.003891 
	C46.556797,61.997807 46.115147,61.991722 45.271240,61.649807 
	C43.922852,60.872322 42.976715,60.430676 42.030579,59.989025 
	C42.025005,59.259182 42.019436,58.529339 42.331062,57.381760 
	C43.181210,56.655815 43.714157,56.347607 44.393166,55.934662 
	C44.733437,55.675442 44.890526,55.489563 45.346550,55.190968 
	C46.486862,54.742485 47.291119,54.375317 48.300964,53.882210 
	C48.756466,53.543125 48.942993,53.284286 49.405712,53.145561 
	C51.497467,53.541111 53.249630,53.770851 55.001797,54.000595 
	C55.468945,54.320858 55.936089,54.641121 56.691589,55.359795 
	C56.649952,57.168800 56.319962,58.579399 55.591347,60.004875 
	C52.461300,60.681137 49.729874,61.342514 46.998447,62.003891 
z"/>
<path fill="#ACB6F1" opacity="1.000000" stroke="none" 
	d="
M30.383141,57.070488 
	C29.198641,57.074039 28.461962,57.042118 27.364571,56.771175 
	C27.003859,56.532154 27.020855,56.119781 27.468300,56.079285 
	C30.616320,55.993732 33.316895,55.948681 36.351700,55.947346 
	C37.133091,56.035805 37.580257,56.080547 38.012985,56.329044 
	C37.998547,56.532799 37.965416,56.939983 37.965416,56.939983 
	C35.587265,56.971657 33.209114,57.003334 30.383141,57.070488 
z"/>
<path fill="#ECD4FD" opacity="1.000000" stroke="none" 
	d="
M42.049271,60.284683 
	C42.976715,60.430676 43.922852,60.872322 44.939995,61.645584 
	C44.563522,61.985546 44.116043,61.993893 43.332954,62.007256 
	C42.687557,61.534958 42.377762,61.057652 42.049271,60.284683 
z"/>
<path fill="#BEC4F3" opacity="1.000000" stroke="none" 
	d="
M38.371876,56.958229 
	C37.965416,56.939983 37.998547,56.532799 38.403275,56.279503 
	C39.855061,56.012856 40.902119,55.999504 42.228767,55.980331 
	C42.694695,55.968102 42.881020,55.961693 43.274216,55.921631 
	C43.481087,55.887981 43.895390,55.824249 43.980957,55.881897 
	C44.066525,55.939541 44.247105,56.039394 44.247105,56.039394 
	C43.714157,56.347607 43.181210,56.655815 42.338860,57.016888 
	C40.945747,57.038658 39.862041,57.007568 38.371876,56.958229 
z"/>
<path fill="#E9A0ED" opacity="1.000000" stroke="none" 
	d="
M43.067348,55.955284 
	C42.881020,55.961693 42.694695,55.968102 42.024223,55.726791 
	C40.697712,55.265873 39.855339,55.052670 38.987133,54.466843 
	C35.833752,50.511543 25.053095,50.459251 21.634279,53.975582 
	C20.567213,53.623142 19.809052,53.306797 19.050888,52.990452 
	C18.456377,51.885986 17.861866,50.781517 17.152554,49.004044 
	C17.061014,47.543896 17.084276,46.756756 17.485231,45.992115 
	C28.166918,50.307316 39.010380,50.283821 49.793182,50.315506 
	C49.490105,51.402687 49.278111,52.191223 49.066124,52.979759 
	C48.942993,53.284286 48.756466,53.543125 48.094772,53.700672 
	C46.792164,54.187477 45.901329,54.729881 45.010490,55.272285 
	C44.890526,55.489563 44.733437,55.675442 44.393166,55.934662 
	C44.247105,56.039394 44.066525,55.939541 43.910152,55.729671 
	C43.524971,55.664963 43.296162,55.810123 43.067348,55.955284 
z"/>
<path fill="#E9CFFD" opacity="1.000000" stroke="none" 
	d="
M12.671827,54.166428 
	C13.338748,57.077015 13.669513,60.121525 14.020443,63.531136 
	C12.968162,63.920464 11.895716,63.944691 10.370817,63.628029 
	C8.612982,62.190758 7.307598,61.094376 6.002215,59.997993 
	C6.003661,58.939209 6.005105,57.880424 6.012753,56.425686 
	C8.124526,55.453274 10.230099,54.876812 12.671827,54.166428 
z"/>
<path fill="#A8B5F8" opacity="1.000000" stroke="none" 
	d="
M18.918268,53.207253 
	C19.809052,53.306797 20.567213,53.623142 21.667137,54.208836 
	C22.008898,54.478180 22.085938,54.942692 22.106495,55.165642 
	C22.127052,55.388588 22.184788,55.832642 22.184788,55.832642 
	C20.897335,55.437454 19.609880,55.042267 18.150061,54.336433 
	C18.247011,53.825207 18.516329,53.624630 18.918268,53.207253 
z"/>
<path fill="#C28BC9" opacity="1.000000" stroke="none" 
	d="
M17.107540,45.969612 
	C17.084276,46.756756 17.061014,47.543896 16.992500,48.724907 
	C16.267229,48.608189 15.587204,48.097599 14.751867,47.060081 
	C14.619290,46.339478 14.642024,46.145805 14.803291,45.711914 
	C14.998301,45.295662 15.054777,45.119629 15.348630,44.969337 
	C15.586007,44.995083 16.062077,45.032528 16.214970,45.210857 
	C16.585573,45.619419 16.832132,45.812893 17.107540,45.969612 
z"/>
<path fill="#F0A9F0" opacity="1.000000" stroke="none" 
	d="
M14.664758,45.952137 
	C14.642024,46.145805 14.619290,46.339478 14.538306,46.821335 
	C14.173486,47.053780 13.866471,47.000603 13.326088,46.909973 
	C13.093162,46.869965 13.086737,46.452526 13.353745,46.216808 
	C13.968754,45.971439 14.316755,45.961788 14.664758,45.952137 
z"/>
<path fill="#A985B1" opacity="1.000000" stroke="none" 
	d="
M50.864037,42.982922 
	C51.071316,42.396687 51.278595,41.810452 51.737869,41.034103 
	C52.149921,40.893547 52.309986,40.943100 52.715324,41.249561 
	C52.960606,41.506470 52.961212,41.878677 52.721790,42.152248 
	C52.339973,43.370895 52.197575,44.315975 51.760460,45.085442 
	C51.265167,44.267529 51.064602,43.625225 50.864037,42.982922 
z"/>
<path fill="#B59BBC" opacity="1.000000" stroke="none" 
	d="
M52.961212,41.878677 
	C52.961212,41.878677 52.960606,41.506470 52.956249,41.321163 
	C53.613411,41.545490 54.274933,41.955124 54.996731,42.691078 
	C54.921822,43.269173 54.746403,43.488819 54.285419,43.480648 
	C53.680458,42.816196 53.320835,42.347439 52.961212,41.878677 
z"/>
<path fill="#BFE5FE" opacity="1.000000" stroke="none" 
	d="
M49.405708,53.145561 
	C49.278111,52.191223 49.490105,51.402687 49.928299,50.060226 
	C50.435471,49.008011 50.716446,48.509720 51.251183,47.950798 
	C51.703590,47.614510 51.902241,47.338856 52.312408,47.022038 
	C52.523926,46.980873 52.945446,46.891083 52.945446,46.891083 
	C54.719498,46.960461 56.493546,47.029839 58.633270,47.047318 
	C59.166088,46.997189 59.333241,46.998959 59.751141,47.003510 
	C60.635841,48.764820 61.269794,50.523350 61.954994,52.633614 
	C59.862179,53.145538 57.718113,53.305729 55.287922,53.733261 
	C53.249630,53.770851 51.497467,53.541111 49.405708,53.145561 
z"/>
<path fill="#F8B3F4" opacity="1.000000" stroke="none" 
	d="
M52.721790,42.152248 
	C53.320835,42.347439 53.680458,42.816196 54.101044,43.584381 
	C53.986500,44.432518 53.810986,44.981228 53.121239,45.701920 
	C52.412628,45.774960 52.218258,45.676014 52.027412,45.497639 
	C52.030933,45.418209 52.055180,45.261051 52.055180,45.261051 
	C52.197575,44.315975 52.339973,43.370895 52.721790,42.152248 
z"/>
<path fill="#A985B1" opacity="1.000000" stroke="none" 
	d="
M52.023891,45.577068 
	C52.218258,45.676014 52.412628,45.774960 52.934448,45.920403 
	C53.261894,45.966896 53.046242,46.409561 52.995842,46.650322 
	C52.945446,46.891083 52.523926,46.980873 52.046738,46.995762 
	C51.393097,46.993877 51.216644,46.977108 51.028496,46.716644 
	C51.016808,46.472950 50.999352,45.984554 51.243111,45.851562 
	C51.665874,45.671402 51.844883,45.624233 52.023891,45.577068 
z"/>
<path fill="#ECD4FD" opacity="1.000000" stroke="none" 
	d="
M55.989971,59.989998 
	C56.319962,58.579399 56.649952,57.168800 56.984955,55.394211 
	C60.550137,54.965824 60.320763,56.935623 59.154644,59.666946 
	C59.010715,60.002899 58.520767,60.024624 57.937447,60.019180 
	C56.903748,60.010601 56.453369,60.007462 56.001053,60.001690 
	C55.999111,59.999062 55.989971,59.989998 55.989971,59.989998 
z"/>
<path fill="#ECD4FD" opacity="1.000000" stroke="none" 
	d="
M46.999866,62.332611 
	C49.729874,61.342514 52.461300,60.681137 55.591347,60.004875 
	C55.989971,59.989998 55.999111,59.999062 55.836540,60.294617 
	C54.439568,61.712204 53.205170,62.834240 51.970764,63.956268 
	C50.595207,63.965008 49.219654,63.973751 47.432308,63.978855 
	C47.014107,63.537258 47.007698,63.099297 46.999866,62.332611 
z"/>
<path fill="#DBD2FD" opacity="1.000000" stroke="none" 
	d="
M52.357258,63.959934 
	C53.205170,62.834240 54.439568,61.712204 55.838482,60.297241 
	C56.453369,60.007462 56.903748,60.010601 57.692329,60.026154 
	C58.033451,63.724499 55.019119,63.346378 52.357258,63.959934 
z"/>
<path fill="#DECCFC" opacity="1.000000" stroke="none" 
	d="
M6.001208,60.331863 
	C7.307598,61.094376 8.612982,62.190758 9.969276,63.622292 
	C8.873009,63.405640 7.725830,62.853832 6.288955,62.151615 
	C5.999573,61.556046 5.999887,61.110889 6.001208,60.331863 
z"/>
<path fill="#30244F" opacity="1.000000" stroke="none" 
	d="
M24.828627,32.450356 
	C24.169958,32.510532 23.511288,32.570709 22.876444,32.409130 
	C23.015423,31.457655 23.130579,30.727940 23.425014,29.851425 
	C23.831224,29.468487 23.940895,29.186701 23.995823,28.615387 
	C24.344904,28.224796 24.631470,28.078087 25.097744,28.038769 
	C25.277451,28.146160 25.695881,28.131153 25.695881,28.131153 
	C26.648981,29.317299 27.602079,30.503445 27.980976,31.852409 
	C26.592419,32.169891 25.778061,32.324551 24.942242,32.463600 
	C24.920776,32.447990 24.828627,32.450356 24.828627,32.450356 
z"/>
<path fill="#FED1F5" opacity="1.000000" stroke="none" 
	d="
M23.245735,29.998224 
	C23.130579,30.727940 23.015423,31.457655 22.675978,32.218018 
	C19.504154,28.945284 22.603836,27.223080 24.655689,25.068493 
	C25.008253,25.475901 25.016356,25.951651 25.009747,26.982586 
	C24.995037,27.537775 24.918037,27.931379 24.918037,27.931377 
	C24.631470,28.078087 24.344904,28.224796 23.750298,28.721851 
	C23.376747,29.380875 23.311241,29.689548 23.245735,29.998224 
z"/>
<path fill="#2F214E" opacity="1.000000" stroke="none" 
	d="
M42.611336,30.596590 
	C42.466526,31.156670 42.405399,31.325195 41.957176,31.756762 
	C41.267441,32.195236 40.964802,32.370670 40.662159,32.546101 
	C40.127422,31.333305 39.592686,30.120510 39.057949,28.907717 
	C40.270309,29.340157 41.482666,29.772596 42.611336,30.596590 
z"/>
<path fill="#ED7FB8" opacity="1.000000" stroke="none" 
	d="
M34.956032,34.596874 
	C34.158020,35.024776 33.344505,35.110634 32.283039,35.094570 
	C33.003567,34.746708 33.972054,34.500771 34.956032,34.596874 
z"/>
<path fill="#4C3867" opacity="1.000000" stroke="none" 
	d="
M24.963705,32.479214 
	C25.778061,32.324551 26.592419,32.169891 27.722395,32.016502 
	C28.038015,32.017776 28.013060,32.459038 27.986349,32.678417 
	C27.496166,32.927135 27.032696,32.956478 25.990477,32.852890 
	C25.262388,32.639706 25.113047,32.559460 24.963705,32.479214 
z"/>
<path fill="#D164A0" opacity="1.000000" stroke="none" 
	d="
M41.005795,32.768013 
	C40.964802,32.370670 41.267441,32.195236 41.840347,31.998959 
	C42.116302,32.227608 42.121998,32.477104 42.070168,33.097775 
	C41.791569,33.309277 41.570499,33.149601 41.005795,32.768013 
z"/>
<path fill="#776082" opacity="1.000000" stroke="none" 
	d="
M25.097744,28.038769 
	C24.918037,27.931379 24.995037,27.537775 25.022564,27.339228 
	C25.314106,27.306917 25.578125,27.473154 25.769012,27.885273 
	C25.695881,28.131153 25.277451,28.146160 25.097744,28.038769 
z"/>
<path fill="#4C4573" opacity="1.000000" stroke="none" 
	d="
M23.270451,18.915051 
	C23.445545,18.598257 23.917971,18.324144 24.671051,18.022087 
	C24.490398,18.315340 24.029091,18.636536 23.270451,18.915051 
z"/>
<path fill="#FED1F5" opacity="1.000000" stroke="none" 
	d="
M20.229370,21.901878 
	C20.358807,21.292351 20.817987,20.645935 21.620768,19.949516 
	C21.495949,20.554674 21.027533,21.209833 20.229370,21.901878 
z"/>
<path fill="#75356C" opacity="1.000000" stroke="none" 
	d="
M24.942242,32.463600 
	C25.113047,32.559460 25.262388,32.639706 25.641777,32.828384 
	C25.465418,32.920254 25.059011,32.903690 24.740616,32.668739 
	C24.828627,32.450356 24.920776,32.447990 24.942242,32.463600 
z"/>
<path fill="#F5B4F1" opacity="1.000000" stroke="none" 
	d="
M52.027412,45.497639 
	C51.844883,45.624233 51.665874,45.671402 51.046478,45.948471 
	C50.348499,46.350266 50.194099,46.588898 49.748825,46.932426 
	C42.831383,47.030319 36.254166,47.622684 29.802732,46.970581 
	C25.170300,46.502338 20.705933,44.371357 16.114746,42.662998 
	C16.027267,41.914341 15.991632,41.484825 15.955997,41.055309 
	C15.713278,40.545647 15.470558,40.035980 15.129057,39.261204 
	C16.021139,39.060783 17.288589,38.751453 17.960085,39.248020 
	C24.689226,44.224167 32.362114,45.399532 40.394279,44.817081 
	C43.651825,44.580856 46.858368,43.641235 50.476074,43.002304 
	C51.064602,43.625225 51.265167,44.267529 51.760460,45.085442 
	C52.055180,45.261051 52.030933,45.418209 52.027412,45.497639 
z"/>
<path fill="#FCA9F4" opacity="1.000000" stroke="none" 
	d="
M14.803291,45.711914 
	C14.316755,45.961788 13.968754,45.971439 13.360514,46.008171 
	C13.419315,44.742290 13.738355,43.449326 14.444605,42.445442 
	C14.924962,43.470882 15.018107,44.207237 15.111253,44.943596 
	C15.054777,45.119629 14.998301,45.295662 14.803291,45.711914 
z"/>
<path fill="#A47CAD" opacity="1.000000" stroke="none" 
	d="
M15.348630,44.969337 
	C15.018107,44.207237 14.924962,43.470882 14.740533,42.373817 
	C14.911336,41.753586 15.173423,41.494057 15.695753,41.144920 
	C15.991632,41.484825 16.027267,41.914341 16.061510,43.002178 
	C16.060770,44.117844 16.061422,44.575184 16.062077,45.032528 
	C16.062077,45.032528 15.586007,44.995083 15.348630,44.969337 
z"/>
<path fill="#8F74B7" opacity="1.000000" stroke="none" 
	d="
M22.484756,55.882195 
	C22.184788,55.832642 22.127052,55.388588 22.561192,55.195511 
	C27.337372,55.041351 31.679413,55.080269 36.018028,55.315285 
	C36.014599,55.511383 36.017467,55.903629 36.017467,55.903629 
	C33.316895,55.948681 30.616320,55.993732 27.090958,56.031231 
	C25.509264,56.042095 24.752357,56.060516 23.995449,56.078934 
	C23.591875,56.029873 23.188301,55.980812 22.484756,55.882195 
z"/>
<path fill="#AEB2DD" opacity="1.000000" stroke="none" 
	d="
M24.214012,56.321701 
	C24.752357,56.060516 25.509264,56.042095 26.643513,56.071728 
	C27.020855,56.119781 27.003859,56.532154 26.996582,56.737946 
	C26.137060,56.817310 25.284817,56.690887 24.214012,56.321701 
z"/>
<path fill="#ABB7F5" opacity="1.000000" stroke="none" 
	d="
M45.346550,55.190971 
	C45.901329,54.729881 46.792164,54.187477 47.889191,53.826611 
	C47.291119,54.375317 46.486862,54.742485 45.346550,55.190971 
z"/>
<path fill="#816EAE" opacity="1.000000" stroke="none" 
	d="
M36.351700,55.947346 
	C36.017467,55.903629 36.014599,55.511383 36.390785,55.267136 
	C37.515640,54.961750 38.264305,54.900608 39.012970,54.839466 
	C39.855339,55.052670 40.697712,55.265873 41.744629,55.732613 
	C40.902119,55.999504 39.855061,56.012856 38.417713,56.075752 
	C37.580257,56.080547 37.133091,56.035805 36.351700,55.947346 
z"/>
<path fill="#816EAE" opacity="1.000000" stroke="none" 
	d="
M43.274216,55.921631 
	C43.296162,55.810123 43.524971,55.664963 43.824585,55.672028 
	C43.895390,55.824249 43.481087,55.887981 43.274216,55.921631 
z"/>
<path fill="#F0A9F0" opacity="1.000000" stroke="none" 
	d="
M16.214970,45.210857 
	C16.061422,44.575184 16.060770,44.117844 16.113354,43.321320 
	C20.705933,44.371357 25.170300,46.502338 29.802732,46.970581 
	C36.254166,47.622684 42.831383,47.030319 49.727669,46.960365 
	C50.100567,46.950146 50.040211,46.914516 50.133095,47.133759 
	C50.399017,47.631977 50.637478,47.833530 50.964134,47.961868 
	C50.986900,47.966084 50.997417,48.011429 50.997421,48.011429 
	C50.716446,48.509720 50.435471,49.008011 50.019386,49.761581 
	C39.010380,50.283821 28.166918,50.307316 17.485231,45.992115 
	C16.832132,45.812893 16.585573,45.619419 16.214970,45.210857 
z"/>
<path fill="#E397E9" opacity="1.000000" stroke="none" 
	d="
M38.987133,54.466843 
	C38.264305,54.900608 37.515640,54.961750 36.394215,55.071037 
	C31.679413,55.080269 27.337372,55.041351 22.540634,54.972565 
	C22.085938,54.942692 22.008898,54.478180 21.976040,54.244926 
	C25.053095,50.459251 35.833752,50.511543 38.987133,54.466843 
z"/>
<path fill="#B686BA" opacity="1.000000" stroke="none" 
	d="
M51.040188,46.960339 
	C51.216644,46.977108 51.393097,46.993877 51.835220,47.036926 
	C51.902241,47.338856 51.703590,47.614510 51.251183,47.950798 
	C50.997417,48.011429 50.986900,47.966084 50.950832,47.748062 
	C50.914764,47.530045 50.888638,47.101349 50.926628,47.066208 
	C50.964622,47.031071 51.040188,46.960339 51.040188,46.960339 
z"/>
<path fill="#B686BA" opacity="1.000000" stroke="none" 
	d="
M50.121727,46.922211 
	C50.194099,46.588898 50.348499,46.350266 50.802719,46.081463 
	C50.999352,45.984554 51.016808,46.472950 51.028496,46.716644 
	C51.040188,46.960339 50.964622,47.031071 50.718788,47.001106 
	C50.472954,46.971142 50.040211,46.914516 50.040211,46.914516 
	C50.040211,46.914516 50.100567,46.950146 50.121727,46.922211 
z"/>
<path fill="#463867" opacity="1.000000" stroke="none" 
	d="
M23.425014,29.851425 
	C23.311241,29.689548 23.376747,29.380875 23.687782,28.965733 
	C23.940895,29.186701 23.831224,29.468487 23.425014,29.851425 
z"/>
<path fill="#F5B4F1" opacity="1.000000" stroke="none" 
	d="
M50.133095,47.133759 
	C50.040211,46.914516 50.472954,46.971142 50.680794,47.036247 
	C50.888638,47.101349 50.914764,47.530045 50.928062,47.743851 
	C50.637478,47.833530 50.399017,47.631977 50.133095,47.133759 
z"/>
</svg>